#!OML:ASF X:\für Bonn\!DataBase\2005_08_10_Bjorn_Final\c3d\bjorn.ASF
:FULLY-SPECIFIED
:DEGREES
714
root 0.57399 1.57812 18.1291 -442.76 -175.714 -714.158
lowerback -9.6204 0.0458853 -3.99802
upperback 0.967287 0.615199 -2.89372
thorax 6.41668 0.17237 -0.700417
lowerneck -13.5596 -5.54084 -2.55054
upperneck 2.01893 -7.60637 5.50272
head 3.41996 -3.69319 1.71681
rclavicle -7.95139e-015 2.04748e-014
rhumerus -243.501 -228.924 71.5736
rradius 109.605
rwrist -31.4317
rhand 4.09579 6.72779
rfingers 7.12502
rthumb 29.5071 -20.9476
lclavicle -7.95139e-015 2.04748e-014
lhumerus -71.3107 -65.9996 115
lradius 108.009
lwrist 34.8935
lhand 3.75096 -372.78
lfingers 7.12502
lthumb 29.1779 14.9526
rfemur -16.6738 -24.6539 11.2934
rtibia 29.3233
rfoot 2.03596 -6.15164
rtoes 12.5087
lfemur 164.028 179.408 166.417
ltibia 24.7329
lfoot -1.70766 10.1263
ltoes 15.5725
715
root 0.573428 1.57821 18.1297 -442.771 -175.731 -714.165
lowerback -9.61421 0.052519 -3.97201
upperback 0.978381 0.621402 -2.89187
thorax 6.42503 0.176259 -0.712208
lowerneck -13.6073 -5.54484 -2.5544
upperneck 2.05409 -7.61183 5.505
head 3.44208 -3.69456 1.71642
rclavicle -2.38542e-015 -1.23246e-014
rhumerus -243.441 -228.9 71.6603
rradius 109.6
rwrist -31.6434
rhand 4.30142 6.82994
rfingers 7.12502
rthumb 29.7034 -20.8106
lclavicle -2.38542e-015 -1.23246e-014
lhumerus -71.397 -66.0371 115.076
lradius 108.02
lwrist 34.9241
lhand 3.61868 -372.78
lfingers 7.12502
lthumb 29.0516 14.9745
rfemur -16.6657 -24.7345 11.3061
rtibia 29.322
rfoot 2.10132 -6.09769
rtoes 12.3388
lfemur 164.039 179.323 166.43
ltibia 24.7346
lfoot -1.6816 10.1316
ltoes 15.3197
716
root 0.57278 1.5777 18.1294 -442.781 -175.735 -714.166
lowerback -9.60316 0.048362 -3.97459
upperback 0.987623 0.616007 -2.88142
thorax 6.42849 0.173528 -0.700615
lowerneck -13.6524 -5.55385 -2.53128
upperneck 2.08274 -7.62349 5.45758
head 3.45748 -3.70043 1.69416
rclavicle 1.19271e-014 3.77691e-015
rhumerus -243.403 -228.929 71.7514
rradius 109.631
rwrist -31.9353
rhand 4.4243 6.93164
rfingers 7.12502
rthumb 29.8207 -20.6879
lclavicle 1.19271e-014 3.77691e-015
lhumerus -71.4532 -66.0489 115.133
lradius 108.025
lwrist 34.9197
lhand 3.45516 -372.786
lfingers 7.12502
lthumb 28.8954 14.9958
rfemur -16.6567 -24.7617 11.3037
rtibia 29.3247
rfoot 2.10254 -6.078
rtoes 12.1827
lfemur 164.056 179.332 166.433
ltibia 24.7329
lfoot -1.72038 10.1895
ltoes 15.2653
717
root 0.572772 1.57768 18.1293 -442.792 -175.752 -714.164
lowerback -9.5945 0.0591902 -3.9508
upperback 0.99707 0.62783 -2.88962
thorax 6.4337 0.18007 -0.720904
lowerneck -13.6784 -5.56026 -2.50651
upperneck 2.09378 -7.63902 5.47005
head 3.46646 -3.70749 1.69191
rclavicle -3.97569e-015 5.96354e-016
rhumerus -243.344 -228.878 71.8245
rradius 109.627
rwrist -32.11
rhand 4.50836 7.12458
rfingers 7.12502
rthumb 29.9009 -20.4806
lclavicle -3.97569e-015 5.96354e-016
lhumerus -71.5493 -66.1246 115.203
lradius 108.025
lwrist 34.918
lhand 3.30759 -372.794
lfingers 7.12502
lthumb 28.7544 15.0115
rfemur -16.6443 -24.7569 11.317
rtibia 29.3254
rfoot 2.08914 -6.0877
rtoes 12.0715
lfemur 164.069 179.376 166.458
ltibia 24.7328
lfoot -1.7711 10.2554
ltoes 15.2333
718
root 0.572153 1.57761 18.1289 -442.798 -175.737 -714.165
lowerback -9.59128 0.0629535 -3.95486
upperback 1.00164 0.633437 -2.89972
thorax 6.43672 0.18256 -0.728485
lowerneck -13.6901 -5.56697 -2.4876
upperneck 2.09918 -7.65057 5.45674
head 3.46936 -3.71342 1.6828
rclavicle 3.18055e-015 -4.12478e-014
rhumerus -243.282 -228.852 71.8985
rradius 109.631
rwrist -32.2845
rhand 4.58241 7.30713
rfingers 7.12502
rthumb 29.9716 -20.2853
lclavicle 3.18055e-015 -4.12478e-014
lhumerus -71.6096 -66.1541 115.245
lradius 108.024
lwrist 34.9019
lhand 3.22113 -372.853
lfingers 7.12502
lthumb 28.6718 14.9664
rfemur -16.6296 -24.7633 11.2932
rtibia 29.3223
rfoot 2.0884 -6.08266
rtoes 12.0937
lfemur 164.079 179.395 166.441
ltibia 24.739
lfoot -1.82966 10.2918
ltoes 15.1411
719
root 0.57214 1.57762 18.1288 -442.808 -175.753 -714.163
lowerback -9.57268 0.0611471 -3.93802
upperback 1.00078 0.628133 -2.89832
thorax 6.42544 0.180843 -0.737177
lowerneck -13.705 -5.57217 -2.49333
upperneck 2.11365 -7.65909 5.47593
head 3.47909 -3.71676 1.68908
rclavicle -2.22639e-014 2.78299e-014
rhumerus -243.28 -228.857 71.9139
rradius 109.647
rwrist -32.4737
rhand 4.59287 7.46153
rfingers 7.12502
rthumb 29.9816 -20.1291
lclavicle -2.22639e-014 2.78299e-014
lhumerus -71.6953 -66.1787 115.31
lradius 108.03
lwrist 34.9024
lhand 3.11671 -372.855
lfingers 7.12502
lthumb 28.5721 14.9818
rfemur -16.6141 -24.7585 11.3064
rtibia 29.317
rfoot 2.07335 -6.10388
rtoes 12.1506
lfemur 164.085 179.353 166.462
ltibia 24.7456
lfoot -1.82948 10.2996
ltoes 15.122
